<svg xmlns="http://www.w3.org/2000/svg" version="1.0" viewBox="0 0 594 654"><path fill="#2B6CB0" d="M267.3 63.7c.9.2 2.3.2 3 0 .6-.3-.1-.5-1.8-.5-1.6 0-2.2.2-1.2.5m59.8 4.9c0 1.1.3 1.4.6.6.3-.7.2-1.6-.1-1.9-.3-.4-.6.2-.5 1.3m4 16c0 1.1.3 1.4.6.6.3-.7.2-1.6-.1-1.9-.3-.4-.6.2-.5 1.3m53.8 21.1-2.4 2.8 2.8-2.4c2.5-2.3 3.2-3.1 2.4-3.1-.2 0-1.4 1.2-2.8 2.7m-6.5 7.5-1.9 2.3 2.3-1.9c1.2-1.1 2.2-2.1 2.2-2.3 0-.8-.8-.2-2.6 1.9m-136.6 1.5c.7.3 1.6.2 1.9-.1.4-.3-.2-.6-1.3-.5-1.1 0-1.4.3-.6.6m-24.3 3.3c1 1.1 2 2 2.3 2s-.3-.9-1.3-2-2-2-2.3-2 .3.9 1.3 2m161.9 16.2-1.9 2.3 2.3-1.9c2.1-1.8 2.7-2.6 1.9-2.6-.2 0-1.2 1-2.3 2.2m-88.6 4.5c.7.3 1.6.2 1.9-.1.4-.3-.2-.6-1.3-.5-1.1 0-1.4.3-.6.6m8 0c.7.3 1.6.2 1.9-.1.4-.3-.2-.6-1.3-.5-1.1 0-1.4.3-.6.6m-33 2c.7.3 1.6.2 1.9-.1.4-.3-.2-.6-1.3-.5-1.1 0-1.4.3-.6.6m57 0c.7.3 1.6.2 1.9-.1.4-.3-.2-.6-1.3-.5-1.1 0-1.4.3-.6.6m-29 13c.7.3 1.6.2 1.9-.1.4-.3-.2-.6-1.3-.5-1.1 0-1.4.3-.6.6m-150.9 8c-1.3 1.6-1.2 1.7.4.4s2.1-2.1 1.3-2.1c-.2 0-1 .8-1.7 1.7m304.1-1.3c0 .2.8 1 1.8 1.7 1.5 1.3 1.6 1.2.3-.4s-2.1-2.1-2.1-1.3m-313.1 9.3c-1.3 1.6-1.2 1.7.4.4.9-.7 1.7-1.5 1.7-1.7 0-.8-.8-.3-2.1 1.3m5 16-3.4 3.8 3.8-3.4c3.4-3.3 4.2-4.1 3.4-4.1-.2 0-1.9 1.7-3.8 3.7m99.4-3c.9.2 2.5.2 3.5 0 .9-.3.1-.5-1.8-.5s-2.7.2-1.7.5m65.8 5.9c0 1.1.3 1.4.6.6.3-.7.2-1.6-.1-1.9-.3-.4-.6.2-.5 1.3m-95.2 10.1c-1.3 1.6-1.2 1.7.4.4s2.1-2.1 1.3-2.1c-.2 0-1 .8-1.7 1.7m234.1.8c1.3 1.4 2.6 2.5 2.8 2.5.3 0-.5-1.1-1.8-2.5s-2.6-2.5-2.8-2.5c-.3 0 .5 1.1 1.8 2.5m-12 9.8c0 .2 1.5 1.6 3.3 3.3l3.2 2.9-2.9-3.3c-2.8-3-3.6-3.7-3.6-2.9m-168.7 4.4c.9.2 2.3.2 3 0 .6-.3-.1-.5-1.8-.5-1.6 0-2.2.2-1.2.5m29.6 1c-1.3 1.6-1.2 1.7.4.4s2.1-2.1 1.3-2.1c-.2 0-1 .8-1.7 1.7m255.5 8.5-1.9 2.3 2.3-1.9c1.2-1.1 2.2-2.1 2.2-2.3 0-.8-.8-.2-2.6 1.9m-288.1 4.5c.9.2 2.3.2 3 0 .6-.3-.1-.5-1.8-.5-1.6 0-2.2.2-1.2.5M244.2 249c0 1.4.2 1.9.5 1.2.2-.6.2-1.8 0-2.5-.3-.6-.5-.1-.5 1.3m-64.1 4.6c0 1.1.3 1.4.6.6.3-.7.2-1.6-.1-1.9-.3-.4-.6.2-.5 1.3m65.1 10.4c0 1.4.2 1.9.5 1.2.2-.6.2-1.8 0-2.5-.3-.6-.5-.1-.5 1.3m-51 6.5c0 1.6.2 2.2.5 1.2.2-.9.2-2.3 0-3-.3-.6-.5.1-.5 1.8m-15.9 16c0 2.2.2 3 .4 1.7.2-1.2.2-3 0-4-.3-.9-.5.1-.4 2.3m52.8 1.1c0 1.1.3 1.4.6.6.3-.7.2-1.6-.1-1.9-.3-.4-.6.2-.5 1.3m98.1 1.9c0 1.6.2 2.2.5 1.2.2-.9.2-2.3 0-3-.3-.6-.5.1-.5 1.8m-98 3c0 1.6.2 2.2.5 1.2.2-.9.2-2.3 0-3-.3-.6-.5.1-.5 1.8m98 8.5c0 1.9.2 2.7.5 1.7.2-.9.2-2.5 0-3.5-.3-.9-.5-.1-.5 1.8m-310.1.6c0 1.1.3 1.4.6.6.3-.7.2-1.6-.1-1.9-.3-.4-.6.2-.5 1.3m173.1 3.4c0 1.9.2 2.7.5 1.7.2-.9.2-2.5 0-3.5-.3-.9-.5-.1-.5 1.8m381 1.5c0 1.6.2 2.2.5 1.2.2-.9.2-2.3 0-3-.3-.6-.5.1-.5 1.8m-326 1.5c0 1.4.2 1.9.5 1.2.2-.6.2-1.8 0-2.5-.3-.6-.5-.1-.5 1.3m-228.9 5.5c0 2.7.2 3.8.4 2.2.2-1.5.2-3.7 0-5-.2-1.2-.4 0-.4 2.8m89.8-2.9c0 1.1.3 1.4.6.6.3-.7.2-1.6-.1-1.9-.3-.4-.6.2-.5 1.3m245.8 1.1c-1.3 1.6-1.2 1.7.4.4s2.1-2.1 1.3-2.1c-.2 0-1 .8-1.7 1.7m-4.5 3.5-1.9 2.3 2.3-1.9c1.2-1.1 2.2-2.1 2.2-2.3 0-.8-.8-.2-2.6 1.9m-117.2 2.3c0 1.6.2 2.2.5 1.2.2-.9.2-2.3 0-3-.3-.6-.5.1-.5 1.8m-55.9 4c0 2.7.2 3.8.4 2.2.2-1.5.2-3.7 0-5-.2-1.2-.4 0-.4 2.8m-144.1 2c0 1.6.2 2.2.5 1.2.2-.9.2-2.3 0-3-.3-.6-.5.1-.5 1.8m158.9 1.1c0 1.1.3 1.4.6.6.3-.7.2-1.6-.1-1.9-.3-.4-.6.2-.5 1.3m-85 3c0 1.1.3 1.4.6.6.3-.7.2-1.6-.1-1.9-.3-.4-.6.2-.5 1.3m-89.2 11.6c0 5.1-.2 11.4-.4 14.1-.1 2.6.1 5 .6 5.3s.9-6 .9-14-.2-14.6-.5-14.6-.5 4.2-.6 9.2m312.2-1.6c0 1.1.3 1.4.6.6.3-.7.2-1.6-.1-1.9-.3-.4-.6.2-.5 1.3m-223.8 3.9c0 2.7.2 3.8.4 2.2.2-1.5.2-3.7 0-5-.2-1.2-.4 0-.4 2.8m84.9.5c0 1.9.2 2.7.5 1.7.2-.9.2-2.5 0-3.5-.3-.9-.5-.1-.5 1.8m-84.1 11.6c0 1.1.3 1.4.6.6.3-.7.2-1.6-.1-1.9-.3-.4-.6.2-.5 1.3m68 2c0 1.1.3 1.4.6.6.3-.7.2-1.6-.1-1.9-.3-.4-.6.2-.5 1.3m327 0c0 1.1.3 1.4.6.6.3-.7.2-1.6-.1-1.9-.3-.4-.6.2-.5 1.3M189.2 360c0 1.4.2 1.9.5 1.2.2-.6.2-1.8 0-2.5-.3-.6-.5-.1-.5 1.3m-16.1 11.6c0 1.1.3 1.4.6.6.3-.7.2-1.6-.1-1.9-.3-.4-.6.2-.5 1.3m15.2 3.4c0 2.5.2 3.5.4 2.2.2-1.2.2-3.2 0-4.5-.2-1.2-.4-.2-.4 2.3m340.8-.4c0 1.1.3 1.4.6.6.3-.7.2-1.6-.1-1.9-.3-.4-.6.2-.5 1.3M390.4 385c0 5.2.1 7.4.3 4.7.2-2.6.2-6.8 0-9.5-.2-2.6-.3-.4-.3 4.8m-218.2 4c0 1.9.2 2.7.5 1.7.2-.9.2-2.5 0-3.5-.3-.9-.5-.1-.5 1.8m175-.3c3.7.2 10 .2 14 0 4-.1 1-.3-6.7-.3s-11 .1-7.3.3m-160 6.8c0 1.6.2 2.2.5 1.2.2-.9.2-2.3 0-3-.3-.6-.5.1-.5 1.8m203.1 7.5c0 2.5.2 3.5.4 2.2.2-1.2.2-3.2 0-4.5-.2-1.2-.4-.2-.4 2.3m-322.2-.4c0 1.1.3 1.4.6.6.3-.7.2-1.6-.1-1.9-.3-.4-.6.2-.5 1.3m103.1 1.9c0 1.6.2 2.2.5 1.2.2-.9.2-2.3 0-3-.3-.6-.5.1-.5 1.8m218.9 6.1c0 1.1.3 1.4.6.6.3-.7.2-1.6-.1-1.9-.3-.4-.6.2-.5 1.3m-204 1c0 1.1.3 1.4.6.6.3-.7.2-1.6-.1-1.9-.3-.4-.6.2-.5 1.3m-105.2 1.1c-1.3 1.6-1.2 1.7.4.4.9-.7 1.7-1.5 1.7-1.7 0-.8-.8-.3-2.1 1.3m309.2 3.9c0 1.1.3 1.4.6.6.3-.7.2-1.6-.1-1.9-.3-.4-.6.2-.5 1.3m-.1 7.3c0 1.7.4 3.2.8 3.5.4.2.6-1.1.4-3-.5-4.2-1.2-4.5-1.2-.5m-219.8.1c0 1.4.2 1.9.5 1.2.2-.6.2-1.8 0-2.5-.3-.6-.5-.1-.5 1.3M154 464.4c0 .2.8 1 1.8 1.7 1.5 1.3 1.6 1.2.3-.4s-2.1-2.1-2.1-1.3m7 7.1c1.9 1.9 3.6 3.5 3.9 3.5s-1-1.6-2.9-3.5-3.6-3.5-3.9-3.5 1 1.6 2.9 3.5m-17 27c1.3 1.4 2.6 2.5 2.8 2.5.3 0-.5-1.1-1.8-2.5s-2.6-2.5-2.8-2.5c-.3 0 .5 1.1 1.8 2.5m319 6c-.7.9-1.1 1.7-.9 2 .3.2 1-.5 1.7-1.5 1.4-2.4 1-2.6-.8-.5m-138.2 20.2c.7.3 1.6.2 1.9-.1.4-.3-.2-.6-1.3-.5-1.1 0-1.4.3-.6.6m-28.5 2c.9.2 2.5.2 3.5 0 .9-.3.1-.5-1.8-.5s-2.7.2-1.7.5m-24.5 14c.6.2 1.8.2 2.5 0 .6-.3.1-.5-1.3-.5s-1.9.2-1.2.5m47 0c.6.2 1.8.2 2.5 0 .6-.3.1-.5-1.3-.5s-1.9.2-1.2.5m-138.4 11.5-1.9 2.3 2.3-1.9c1.2-1.1 2.2-2.1 2.2-2.3 0-.8-.8-.2-2.6 1.9m-7 7-1.9 2.3 2.3-1.9c2.1-1.8 2.7-2.6 1.9-2.6-.2 0-1.2 1-2.3 2.2m-7.6 6.5c.7.3 1.6.2 1.9-.1.4-.3-.2-.6-1.3-.5-1.1 0-1.4.3-.6.6m237.2-.4c0 .2 1.5 1.6 3.3 3.3l3.2 2.9-2.9-3.3c-2.8-3-3.6-3.7-3.6-2.9m-236.2 18.9c.5.5 1.6.8 2.3.6.8-.3.3-.7-1-1.1-1.7-.4-2.1-.3-1.3.5m98.1 27c1.2 1.7 3.8 1.8 31 1.6l29.6-.3-29.4-.2c-21.5-.3-29.9-.7-31-1.6-1.4-1.1-1.4-1-.2.5"/><path fill="#2B6CB0" d="M330.1 77.6c0 1.1.3 1.4.6.6.3-.7.2-1.6-.1-1.9-.3-.4-.6.2-.5 1.3M284 79.7c15.9.7 31.8.7 31.3 0-.2-.4-8.8-.6-19.1-.5s-15.8.3-12.2.5M182.5 83c-.3.6.1.7.9.4 1.8-.7 2.1-1.4.7-1.4-.6 0-1.3.4-1.6 1m221.4 1.7c-1.3 1.6-1.2 1.7.4.4.9-.7 1.7-1.5 1.7-1.7 0-.8-.8-.3-2.1 1.3M187 84.4c0 .2.8 1 1.8 1.7 1.5 1.3 1.6 1.2.3-.4s-2.1-2.1-2.1-1.3m221.7 17.3c-.3.5.5.8 1.8.8s2.1-.3 1.8-.8c-.2-.4-1-.7-1.8-.7s-1.6.3-1.8.7M185.5 105c1 1.1 2 2 2.3 2s-.3-.9-1.3-2-2-2-2.3-2 .3.9 1.3 2m216.9 4.2-1.9 2.3 2.3-1.9c2.1-1.8 2.7-2.6 1.9-2.6-.2 0-1.2 1-2.3 2.2M193.5 114c1 1.1 2 2 2.3 2s-.3-.9-1.3-2-2-2-2.3-2 .3.9 1.3 2m51.3.7c.7.3 1.6.2 1.9-.1.4-.3-.2-.6-1.3-.5-1.1 0-1.4.3-.6.6m147.6 5.5-1.9 2.3 2.3-1.9c2.1-1.8 2.7-2.6 1.9-2.6-.2 0-1.2 1-2.3 2.2M202 123.5c1.3 1.4 2.6 2.5 2.8 2.5.3 0-.5-1.1-1.8-2.5s-2.6-2.5-2.8-2.5c-.3 0 .5 1.1 1.8 2.5m124 .4c0 1 2.9 3.6 3.4 3 .1-.2-.6-1.2-1.6-2.2-1-.9-1.8-1.3-1.8-.8m-62.1 1.8c-1.3 1.6-1.2 1.7.4.4s2.1-2.1 1.3-2.1c-.2 0-1 .8-1.7 1.7m120 4-2.4 2.8 2.8-2.4c2.5-2.3 3.2-3.1 2.4-3.1-.2 0-1.4 1.2-2.8 2.7m-101.6 9c1.5.2 3.9.2 5.5 0 1.5-.2.2-.4-2.8-.4s-4.3.2-2.7.4m21 0c1.5.2 3.7.2 5 0 1.2-.2 0-.4-2.8-.4-2.7 0-3.8.2-2.2.4m-34.5 1c.6.2 1.8.2 2.5 0 .6-.3.1-.5-1.3-.5s-1.9.2-1.2.5m51 0c.7.3 1.6.2 1.9-.1.4-.3-.2-.6-1.3-.5-1.1 0-1.4.3-.6.6m-57 1c.7.3 1.6.2 1.9-.1.4-.3-.2-.6-1.3-.5-1.1 0-1.4.3-.6.6m63 0c.7.3 1.6.2 1.9-.1.4-.3-.2-.6-1.3-.5-1.1 0-1.4.3-.6.6m-74 2c.7.3 1.6.2 1.9-.1.4-.3-.2-.6-1.3-.5-1.1 0-1.4.3-.6.6m86 0c.7.3 1.6.2 1.9-.1.4-.3-.2-.6-1.3-.5-1.1 0-1.4.3-.6.6m-55.5 12c.9.2 2.3.2 3 0 .6-.3-.1-.5-1.8-.5-1.6 0-2.2.2-1.2.5m22.5 0c1.2.2 3 .2 4 0 .9-.3-.1-.5-2.3-.4-2.2 0-3 .2-1.7.4m15 1c.7.3 1.6.2 1.9-.1.4-.3-.2-.6-1.3-.5-1.1 0-1.4.3-.6.6m-56 1c.7.3 1.6.2 1.9-.1.4-.3-.2-.6-1.3-.5-1.1 0-1.4.3-.6.6m62 0c.7.3 1.6.2 1.9-.1.4-.3-.2-.6-1.3-.5-1.1 0-1.4.3-.6.6m-187.9 9c-1.3 1.6-1.2 1.7.4.4s2.1-2.1 1.3-2.1c-.2 0-1 .8-1.7 1.7m297.6 5.3c1 1.1 2 2 2.3 2s-.3-.9-1.3-2-2-2-2.3-2 .3.9 1.3 2m-286.1 5.2-1.9 2.3 2.3-1.9c2.1-1.8 2.7-2.6 1.9-2.6-.2 0-1.2 1-2.3 2.2m151.6 2.2c0 .2.8 1 1.8 1.7 1.5 1.3 1.6 1.2.3-.4s-2.1-2.1-2.1-1.3m-57.2 4.3c.7.3 1.6.2 1.9-.1.4-.3-.2-.6-1.3-.5-1.1 0-1.4.3-.6.6m208.2 2.8c1.9 1.9 3.6 3.5 3.9 3.5s-1-1.6-2.9-3.5-3.6-3.5-3.9-3.5 1 1.6 2.9 3.5m-147.8-.5c0 1.4.2 1.9.5 1.2.2-.6.2-1.8 0-2.5-.3-.6-.5-.1-.5 1.3m-143.3 2.7c-1.3 1.6-1.2 1.7.4.4.9-.7 1.7-1.5 1.7-1.7 0-.8-.8-.3-2.1 1.3m276.1 5.8c1.9 1.9 3.6 3.5 3.9 3.5s-1-1.6-2.9-3.5-3.6-3.5-3.9-3.5 1 1.6 2.9 3.5m-258.1.2c-1.3 1.6-1.2 1.7.4.4.9-.7 1.7-1.5 1.7-1.7 0-.8-.8-.3-2.1 1.3m-48.5 1.5-1.9 2.3 2.3-1.9c2.1-1.8 2.7-2.6 1.9-2.6-.2 0-1.2 1-2.3 2.2m17.6 4.5-5.5 5.8 5.8-5.5c3.1-3 5.7-5.6 5.7-5.7 0-.8-1 .1-6 5.4m315.5-1.7c1 1.1 2 2 2.3 2s-.3-.9-1.3-2-2-2-2.3-2 .3.9 1.3 2m-223.7-.3c.7.3 1.6.2 1.9-.1.4-.3-.2-.6-1.3-.5-1.1 0-1.4.3-.6.6m9 1c.7.3 1.6.2 1.9-.1.4-.3-.2-.6-1.3-.5-1.1 0-1.4.3-.6.6m-82.4 5.5-1.9 2.3 2.3-1.9c2.1-1.8 2.7-2.6 1.9-2.6-.2 0-1.2 1-2.3 2.2m57 0-1.9 2.3 2.3-1.9c2.1-1.8 2.7-2.6 1.9-2.6-.2 0-1.2 1-2.3 2.2m47.4-1.5c.7.3 1.6.2 1.9-.1.4-.3-.2-.6-1.3-.5-1.1 0-1.4.3-.6.6m175.2-.3c0 .2.8 1 1.8 1.7 1.5 1.3 1.6 1.2.3-.4s-2.1-2.1-2.1-1.3m-18 4c0 .2.8 1 1.8 1.7 1.5 1.3 1.6 1.2.3-.4s-2.1-2.1-2.1-1.3m-291.1 5.3c-1.3 1.6-1.2 1.7.4.4s2.1-2.1 1.3-2.1c-.2 0-1 .8-1.7 1.7m318.6 1.3c1 1.1 2 2 2.3 2s-.3-.9-1.3-2-2-2-2.3-2 .3.9 1.3 2m-253.4 1.6c0 1.1.3 1.4.6.6.3-.7.2-1.6-.1-1.9-.3-.4-.6.2-.5 1.3m-50.7 4.6-2.9 3.3 3.3-2.9c3-2.8 3.7-3.6 2.9-3.6-.2 0-1.6 1.5-3.3 3.2m398.2.1c.3 1 .9 1.5 1.2 1.2s0-1.1-.7-1.8c-1-.9-1.1-.8-.5.6M72.5 230c6 6 11.2 11 11.5 11 .2 0-4.5-5-10.5-11-6-6.1-11.2-11-11.5-11-.2 0 4.5 4.9 10.5 11m446.5.5c-4.1 4.1-7.2 7.5-6.9 7.5.2 0 3.8-3.4 7.9-7.5s7.2-7.5 6.9-7.5c-.2 0-3.8 3.4-7.9 7.5m-318-1.3c-.3 2.6-.1 4.3.3 3.9.5-.5.7-2.6.5-4.7l-.3-3.9zm25.9-.5c-1.3 1.6-1.2 1.7.4.4s2.1-2.1 1.3-2.1c-.2 0-1 .8-1.7 1.7m28.9-1c.7.3 1.6.2 1.9-.1.4-.3-.2-.6-1.3-.5-1.1 0-1.4.3-.6.6m-73.3 7.3c-.3.6.1.7.9.4 1.8-.7 2.1-1.4.7-1.4-.6 0-1.3.4-1.6 1m349.4 3.7c-1.3 1.6-1.2 1.7.4.4s2.1-2.1 1.3-2.1c-.2 0-1 .8-1.7 1.7m-287.6 3.8c0 2.7.2 3.8.4 2.2.2-1.5.2-3.7 0-5-.2-1.2-.4 0-.4 2.8m262.6.2-3.4 3.8 3.8-3.4c2-1.9 3.7-3.6 3.7-3.8 0-.8-.8 0-4.1 3.4m-326.6 5.8c0 2.2.2 3 .4 1.7.2-1.2.2-3 0-4-.3-.9-.5.1-.4 2.3m319.7 1c-.7.9-1.1 1.7-.9 2 .3.2 1-.5 1.7-1.5 1.4-2.4 1-2.6-.8-.5m-303.3 1.2c-.3.5 3.4.7 8.1.5 16-.5 17.8-.8 5-1-7-.1-12.9.1-13.1.5m32.3 5.1.5 4.7.3-3.9c.2-2.1 0-4.2-.5-4.7-.4-.4-.6 1.3-.3 3.9m16.3 1.7c0 2.7.2 3.8.4 2.2.2-1.5.2-3.7 0-5-.2-1.2-.4 0-.4 2.8m-66.1 8c0 1.6.2 2.2.5 1.2.2-.9.2-2.3 0-3-.3-.6-.5.1-.5 1.8m251.3 87c0 48.4.1 68.3.2 44.3.2-24 .2-63.6 0-88-.1-24.4-.2-4.7-.2 43.7m-236.2-76c0 2.2.2 3 .4 1.7.2-1.2.2-3 0-4-.3-.9-.5.1-.4 2.3m-16.1 3.5c0 1.9.2 2.7.5 1.7.2-.9.2-2.5 0-3.5-.3-.9-.5-.1-.5 1.8m52.1 1.5c0 2.2.2 3 .4 1.7.2-1.2.2-3 0-4-.3-.9-.5.1-.4 2.3m16 5.5c0 3.6.2 5 .4 3.2.2-1.7.2-4.7 0-6.5-.2-1.7-.4-.3-.4 3.3m166.3-1.2c-.3.5.1.9.9.9s1.2-.4.9-.9c-.3-.4-.7-.8-.9-.8s-.6.4-.9.8m-363.8 3.9c.7.3 1.6.2 1.9-.1.4-.3-.2-.6-1.3-.5-1.1 0-1.4.3-.6.6m144.4 3.8c0 1.6.2 2.2.5 1.2.2-.9.2-2.3 0-3-.3-.6-.5.1-.5 1.8m136 1.5c0 1.9.2 2.7.5 1.7.2-.9.2-2.5 0-3.5-.3-.9-.5-.1-.5 1.8m-304.4-.3c.7.3 1.6.2 1.9-.1.4-.3-.2-.6-1.3-.5-1.1 0-1.4.3-.6.6m542 0c.7.3 1.6.2 1.9-.1.4-.3-.2-.6-1.3-.5-1.1 0-1.4.3-.6.6M231.3 299c0 2.5.2 3.5.4 2.2.2-1.2.2-3.2 0-4.5-.2-1.2-.4-.2-.4 2.3m-54.1-1c0 1.4.2 1.9.5 1.2.2-.6.2-1.8 0-2.5-.3-.6-.5-.1-.5 1.3m-158.1.6c0 1.1.3 1.4.6.6.3-.7.2-1.6-.1-1.9-.3-.4-.6.2-.5 1.3m228.2 2.9c0 2.7.2 3.8.4 2.2.2-1.5.2-3.7 0-5-.2-1.2-.4 0-.4 2.8m273.5.2c.7.3 1.6.2 1.9-.1.4-.3-.2-.6-1.3-.5-1.1 0-1.4.3-.6.6m52.3.9c0 1.1.3 1.4.6.6.3-.7.2-1.6-.1-1.9-.3-.4-.6.2-.5 1.3m-554.9 3.9c0 1.6.2 2.2.5 1.2.2-.9.2-2.3 0-3-.3-.6-.5.1-.5 1.8M329.4 320c0 9.1.2 12.8.3 8.2.2-4.5.2-11.9 0-16.5-.1-4.5-.3-.8-.3 8.3m169.7-13.4c0 1.1.3 1.4.6.6.3-.7.2-1.6-.1-1.9-.3-.4-.6.2-.5 1.3M192.2 311c0 1.9.2 2.7.5 1.7.2-.9.2-2.5 0-3.5-.3-.9-.5-.1-.5 1.8m366 0c0 1.4.2 1.9.5 1.2.2-.6.2-1.8 0-2.5-.3-.6-.5-.1-.5 1.3m-381.9 2.5c0 2.2.2 3 .4 1.7.2-1.2.2-3 0-4-.3-.9-.5.1-.4 2.3m-143 3c0 2.2.2 3 .4 1.7.2-1.2.2-3 0-4-.3-.9-.5.1-.4 2.3m57.9 1c0 1.6.2 2.2.5 1.2.2-.9.2-2.3 0-3-.3-.6-.5.1-.5 1.8m16 .5c0 1.4.2 1.9.5 1.2.2-.6.2-1.8 0-2.5-.3-.6-.5-.1-.5 1.3m148.7 1.7c-1.3 1.6-1.2 1.7.4.4s2.1-2.1 1.3-2.1c-.2 0-1 .8-1.7 1.7m245.3 1.8c0 1.6.2 2.2.5 1.2.2-.9.2-2.3 0-3-.3-.6-.5.1-.5 1.8M232.3 325c0 3 .2 4.3.4 2.7.2-1.5.2-3.9 0-5.5-.2-1.5-.4-.2-.4 2.8m252.9-3c0 1.4.2 1.9.5 1.2.2-.6.2-1.8 0-2.5-.3-.6-.5-.1-.5 1.3m-468.6 6.7c-.3 2.1-.5 7.6-.4 12.3.1 8.2.1 8 .8-3.5.8-12.6.7-15-.4-8.8m15.8 7.8c0 6 .1 8.4.3 5.2s.2-8.1 0-11-.3-.3-.3 5.8m158.8-8.5c0 1.4.2 1.9.5 1.2.2-.6.2-1.8 0-2.5-.3-.6-.5-.1-.5 1.3m166.7-.3c-1.3 1.6-1.2 1.7.4.4.9-.7 1.7-1.5 1.7-1.7 0-.8-.8-.3-2.1 1.3m201.5 8.8c0 6 .1 8.4.3 5.2s.2-8.1 0-11-.3-.3-.3 5.8m-453.2-5c0 1.6.2 2.2.5 1.2.2-.9.2-2.3 0-3-.3-.6-.5.1-.5 1.8m-15.9 7c0 4.4.2 6.1.4 3.7.2-2.3.2-5.9 0-8-.2-2-.4-.1-.4 4.3m84.9-5c0 1.6.2 2.2.5 1.2.2-.9.2-2.3 0-3-.3-.6-.5.1-.5 1.8m87.7.2c-1.3 1.6-1.2 1.7.4.4s2.1-2.1 1.3-2.1c-.2 0-1 .8-1.7 1.7m-29.6 6.3c0 2.5.2 3.5.4 2.2.2-1.2.2-3.2 0-4.5-.2-1.2-.4-.2-.4 2.3m100.5 3.7c.6.2 1.8.2 2.5 0 .6-.3.1-.5-1.3-.5s-1.9.2-1.2.5m-159.5 5.8c0 2.7.2 3.8.4 2.2.2-1.5.2-3.7 0-5-.2-1.2-.4 0-.4 2.8m16-1c0 2.2.2 3 .4 1.7.2-1.2.2-3 0-4-.3-.9-.5.1-.4 2.3m43.7-2.1c0 .2.8 1 1.8 1.7 1.5 1.3 1.6 1.2.3-.4s-2.1-2.1-2.1-1.3M106.2 350c0 1.4.2 1.9.5 1.2.2-.6.2-1.8 0-2.5-.3-.6-.5-.1-.5 1.3m132.6-.3c.7.3 1.6.2 1.9-.1.4-.3-.2-.6-1.3-.5-1.1 0-1.4.3-.6.6M16.2 353c0 1.4.2 1.9.5 1.2.2-.6.2-1.8 0-2.5-.3-.6-.5-.1-.5 1.3m469 5c0 1.4.2 1.9.5 1.2.2-.6.2-1.8 0-2.5-.3-.6-.5-.1-.5 1.3m16 1.5c0 1.6.2 2.2.5 1.2.2-.9.2-2.3 0-3-.3-.6-.5.1-.5 1.8m-410 3.5c0 1.9.2 2.7.5 1.7.2-.9.2-2.5 0-3.5-.3-.9-.5-.1-.5 1.8m16 0c0 1.4.2 1.9.5 1.2.2-.6.2-1.8 0-2.5-.3-.6-.5-.1-.5 1.3m82 1.5c0 1.6.2 2.2.5 1.2.2-.9.2-2.3 0-3-.3-.6-.5.1-.5 1.8m-152.4 1.2c.7.3 1.6.2 1.9-.1.4-.3-.2-.6-1.3-.5-1.1 0-1.4.3-.6.6m478.3.9c0 1.1.3 1.4.6.6.3-.7.2-1.6-.1-1.9-.3-.4-.6.2-.5 1.3m39.7-.9c.7.3 1.6.2 1.9-.1.4-.3-.2-.6-1.3-.5-1.1 0-1.4.3-.6.6M173.2 368c0 1.4.2 1.9.5 1.2.2-.6.2-1.8 0-2.5-.3-.6-.5-.1-.5 1.3m-123.5 1.1c.7.7 1.5 1 1.8.7s-.2-.9-1.2-1.2c-1.4-.6-1.5-.5-.6.5M541 369c-.9.6-1 1-.3 1 .6 0 1.5-.5 1.8-1 .8-1.2.4-1.2-1.5 0m-57.9 3.6c0 1.1.3 1.4.6.6.3-.7.2-1.6-.1-1.9-.3-.4-.6.2-.5 1.3m-172.7.1c71.5.3 77.1.4 79 2.1 2.1 1.7 2.1 1.7.2-.6l-1.9-2.2-77.1.2-77.1.3zm188.7 1.9c0 1.1.3 1.4.6.6.3-.7.2-1.6-.1-1.9-.3-.4-.6.2-.5 1.3m-406 3c0 1.1.3 1.4.6.6.3-.7.2-1.6-.1-1.9-.3-.4-.6.2-.5 1.3m420 1c0 1.1.3 1.4.6.6.3-.7.2-1.6-.1-1.9-.3-.4-.6.2-.5 1.3m-340.8 3.9c0 2.2.2 3 .4 1.7.2-1.2.2-3 0-4-.3-.9-.5.1-.4 2.3m15.9-.5c0 1.9.2 2.7.5 1.7.2-.9.2-2.5 0-3.5-.3-.9-.5-.1-.5 1.8m322.9 6.6c0 1.1.3 1.4.6.6.3-.7.2-1.6-.1-1.9-.3-.4-.6.2-.5 1.3m-198.8.1c5.3.2 14.1.2 19.5 0 5.3-.1.9-.3-9.8-.3s-15.1.2-9.7.3m56.5 0c.7.3 1.6.2 1.9-.1.4-.3-.2-.6-1.3-.5-1.1 0-1.4.3-.6.6m6.6 12.3c0 6.9.1 9.7.3 6.2.2-3.4.2-9 0-12.5-.2-3.4-.3-.6-.3 6.3m-204.2-1.5c0 1.6.2 2.2.5 1.2.2-.9.2-2.3 0-3-.3-.6-.5.1-.5 1.8m16 .5c0 1.4.2 1.9.5 1.2.2-.6.2-1.8 0-2.5-.3-.6-.5-.1-.5 1.3M59.4 412.2l-1.9 2.3 2.3-1.9c2.1-1.8 2.7-2.6 1.9-2.6-.2 0-1.2 1-2.3 2.2m452.1 1.8c1 1.1 2 2 2.3 2s-.3-.9-1.3-2-2-2-2.3-2 .3.9 1.3 2m-325.2 4.5c0 3.3.2 4.5.4 2.7s.2-4.5 0-6-.4 0-.4 3.3m-109.4-1.8-2.4 2.8 2.8-2.4c2.5-2.3 3.2-3.1 2.4-3.1-.2 0-1.4 1.2-2.8 2.7m459.1-1.4c0 .2 1.5 1.6 3.3 3.3l3.2 2.9-2.9-3.3c-2.8-3-3.6-3.7-3.6-2.9M170.2 419c0 1.9.2 2.7.5 1.7.2-.9.2-2.5 0-3.5-.3-.9-.5-.1-.5 1.8m-122.8 4.2-2.9 3.3 3.3-2.9c3-2.8 3.7-3.6 2.9-3.6-.2 0-1.6 1.5-3.3 3.2m17.5 4.5-2.4 2.8 2.8-2.4c2.5-2.3 3.2-3.1 2.4-3.1-.2 0-1.4 1.2-2.8 2.7m461.1-.2c1.3 1.4 2.6 2.5 2.8 2.5.3 0-.5-1.1-1.8-2.5s-2.6-2.5-2.8-2.5c-.3 0 .5 1.1 1.8 2.5m22-1.1c0 .2.8 1 1.8 1.7 1.5 1.3 1.6 1.2.3-.4s-2.1-2.1-2.1-1.3m-351.2 1.3c5.7.2 14.7.2 20 0 5.3-.1.7-.3-10.3-.3s-15.4.2-9.7.3m94.5 0c.9.2 2.3.2 3 0 .6-.3-.1-.5-1.8-.5-1.6 0-2.2.2-1.2.5m34 0c9.3.2 24.1.2 33 0 8.9-.1 1.4-.3-16.8-.3-18.1 0-25.4.2-16.2.3m72 0c3.1.2 8.3.2 11.5 0 3.1-.2.5-.3-5.8-.3s-8.9.1-5.7.3m154.7 2.6c0 .2 1.5 1.6 3.3 3.3l3.2 2.9-2.9-3.3c-2.8-3-3.6-3.7-3.6-2.9m-16.5 5.7c1 1.1 2 2 2.3 2s-.3-.9-1.3-2-2-2-2.3-2 .3.9 1.3 2m-481.1 1.2-1.9 2.3 2.3-1.9c1.2-1.1 2.2-2.1 2.2-2.3 0-.8-.8-.2-2.6 1.9m124.4 6.5c.7.3 1.6.2 1.9-.1.4-.3-.2-.6-1.3-.5-1.1 0-1.4.3-.6.6m28 0c1.2.2 3 .2 4 0 .9-.3-.1-.5-2.3-.4-2.2 0-3 .2-1.7.4m236.1 14c-1.3 1.6-1.2 1.7.4.4s2.1-2.1 1.3-2.1c-.2 0-1 .8-1.7 1.7m-332.1 5c.7.3 1.6.2 1.9-.1.4-.3-.2-.6-1.3-.5-1.1 0-1.4.3-.6.6m25.7 5.3c1 1.1 2 2 2.3 2s-.3-.9-1.3-2-2-2-2.3-2 .3.9 1.3 2m295.4 1.7-3.4 3.8 3.8-3.4c2-1.9 3.7-3.6 3.7-3.8 0-.8-.8 0-4.1 3.4M70 471.4c0 .2.8 1 1.8 1.7 1.5 1.3 1.6 1.2.3-.4s-2.1-2.1-2.1-1.3m52.5 3.6c1 1.1 2 2 2.3 2s-.3-.9-1.3-2-2-2-2.3-2 .3.9 1.3 2m19.5-.7c0 .1 3.5 3.6 7.8 7.7l7.7 7.5-7.5-7.8c-6.9-7.1-8-8.2-8-7.4m26 3.1c0 .2.8 1 1.8 1.7 1.5 1.3 1.6 1.2.3-.4s-2.1-2.1-2.1-1.3m250.9 4.3c-1.3 1.6-1.2 1.7.4.4s2.1-2.1 1.3-2.1c-.2 0-1 .8-1.7 1.7m64.6-.7c-.3.6.1.7.9.4 1.8-.7 2.1-1.4.7-1.4-.6 0-1.3.4-1.6 1M174 482.4c0 .2.8 1 1.8 1.7 1.5 1.3 1.6 1.2.3-.4s-2.1-2.1-2.1-1.3m278.6 10.5c-5.3 5.3-8.6 9.4-8.3 10.2.4 1.1.6 1.1.6-.1.1-.8 4-5.4 8.8-10.2 4.8-4.9 8.5-8.8 8.3-8.8-.3 0-4.5 4-9.4 8.9M137 491.5c1.3 1.4 2.6 2.5 2.8 2.5.3 0-.5-1.1-1.8-2.5s-2.6-2.5-2.8-2.5c-.3 0 .5 1.1 1.8 2.5m295.4-.3-1.9 2.3 2.3-1.9c2.1-1.8 2.7-2.6 1.9-2.6-.2 0-1.2 1-2.3 2.2M117 492.5c1.3 1.4 2.6 2.5 2.8 2.5.3 0-.5-1.1-1.8-2.5s-2.6-2.5-2.8-2.5c-.3 0 .5 1.1 1.8 2.5m44-.1c0 .2.8 1 1.8 1.7 1.5 1.3 1.6 1.2.3-.4s-2.1-2.1-2.1-1.3m309.9 3.3c-1.3 1.6-1.2 1.7.4.4.9-.7 1.7-1.5 1.7-1.7 0-.8-.8-.3-2.1 1.3m-200.1 29c.7.3 1.6.2 1.9-.1.4-.3-.2-.6-1.3-.5-1.1 0-1.4.3-.6.6m51 0c.7.3 1.6.2 1.9-.1.4-.3-.2-.6-1.3-.5-1.1 0-1.4.3-.6.6m-45 1c.6.2 1.8.2 2.5 0 .6-.3.1-.5-1.3-.5s-1.9.2-1.2.5m38.5 0c.9.2 2.3.2 3 0 .6-.3-.1-.5-1.8-.5-1.6 0-2.2.2-1.2.5m-99.3.7c0 .2.7.7 1.6 1 .8.3 1.2.2.9-.4-.6-1-2.5-1.4-2.5-.6m33.8 10.8c.5.5 1.6.8 2.3.6.8-.3.3-.7-1-1.1-1.7-.4-2.1-.3-1.3.5m92.2-.2c-.9.6-1 1-.3 1 .6 0 1.5-.5 1.8-1 .8-1.2.4-1.2-1.5 0m-151.5 5.2-4 4.3 4.3-4c3.9-3.6 4.7-4.5 3.9-4.5-.2 0-2.1 1.9-4.2 4.2m70.3-2.5c.7.3 1.6.2 1.9-.1.4-.3-.2-.6-1.3-.5-1.1 0-1.4.3-.6.6m140.2 2.8c1.9 1.9 3.6 3.5 3.9 3.5s-1-1.6-2.9-3.5-3.6-3.5-3.9-3.5 1 1.6 2.9 3.5m-78.2-1.8c.7.3 1.6.2 1.9-.1.4-.3-.2-.6-1.3-.5-1.1 0-1.4.3-.6.6m135.2.2c0 .6.4 1.3 1 1.6s.7-.1.4-.9c-.7-1.8-1.4-2.1-1.4-.7m-180.7.8c.9.2 2.3.2 3 0 .6-.3-.1-.5-1.8-.5-1.6 0-2.2.2-1.2.5m37 0c.9.2 2.3.2 3 0 .6-.3-.1-.5-1.8-.5-1.6 0-2.2.2-1.2.5m-112.5 12c.7.3 1.6.2 1.9-.1.4-.3-.2-.6-1.3-.5-1.1 0-1.4.3-.6.6m57 0c.7.3 1.6.2 1.9-.1.4-.3-.2-.6-1.3-.5-1.1 0-1.4.3-.6.6m74 0c.7.3 1.6.2 1.9-.1.4-.3-.2-.6-1.3-.5-1.1 0-1.4.3-.6.6m-6.8 1.8c-.6.8-1 1.9-.8 2.4.1.6.8-.1 1.5-1.4 1.3-2.8 1.1-3.1-.7-1m93 4c3 3 5.7 5.5 5.9 5.5.3 0-1.9-2.5-4.9-5.5s-5.7-5.5-5.9-5.5c-.3 0 1.9 2.5 4.9 5.5m-18.5 3.5c1 1.1 2 2 2.3 2s-.3-.9-1.3-2-2-2-2.3-2 .3.9 1.3 2m-64.4 14.6c0 1.1.3 1.4.6.6.3-.7.2-1.6-.1-1.9-.3-.4-.6.2-.5 1.3m-2 8c0 1.1.3 1.4.6.6.3-.7.2-1.6-.1-1.9-.3-.4-.6.2-.5 1.3m-8.1 25.9c-.7.9-.8 1.5-.2 1.5.5 0 1.2-.7 1.6-1.5.3-.8.4-1.5.2-1.5s-.9.7-1.6 1.5"/><g fill="#2B6CB0" ><path d="M265.5 64.9c-.3.6-3 10.8-6 22.8s-6 22.7-6.6 23.8c-1.2 2.5-6.2 4.8-8.6 4.1-1.6-.5-10.3 1.3-19.8 4.1-4.4 1.3-5.5.8-11-5.9-8.3-10.1-27.6-29.8-29.2-29.8s-5.1 1.9-23 12.2c-4 2.3-13 7.2-17.5 9.5-1.5.8-3 1.8-3.3 2.3s-2.1 1.7-4 2.6-3.5 2.3-3.5 3.2c0 .8 1.5 6.3 3.4 12.1s4.6 15.1 6.1 20.6 2.9 10.7 3.1 11.5c.5 1.8-23.6 25-26 25-.8 0-1.8-.5-2.1-1-.3-.6-1.7-1-3-1s-2.7-.5-3-1c-.3-.6-1.7-1-3-1s-2.7-.5-3-1c-.3-.6-1.7-1-3-1s-2.7-.5-3-1c-.3-.6-1.5-1-2.6-1-1 0-2.7-.4-3.7-.9-.9-.5-3.7-1.5-6.2-2.2s-5-1.6-5.6-2.1c-.6-.4-2.6-.9-4.4-1-3.4-.3-3.4-.3-13.7 16.7-5.7 9.3-10.9 18.1-11.6 19.5-.8 1.4-2.8 5-4.5 8.2-1.8 3.1-3.2 6.2-3.2 7 0 .7 7.2 8.5 16 17.3 9.3 9.3 16 16.8 16 17.9 0 1-1.4 6-3 11-4.8 14.5-5 15.2-5 16.8 0 2.8-3.5 4.6-12.5 6.2-19.1 3.4-34 6.7-34.7 7.8-1.2 2.1-2 14.9-2.1 38.7l-.2 23.4 4.5 1.2c2.5.7 9.9 2.7 16.5 4.4 6.6 1.8 12.8 3.6 13.7 4.1 1 .6 3.1 1 4.7 1 3.8 0 4.8 1.4 6.1 8.5.6 3.3 1.5 7.8 2 10 1.2 5.4 2.7 11.8 3 13 .1.5.2 1.5.1 2.1-.1 1.1-25.8 25.5-30.4 28.9-1.5 1.1-2.7 2.8-2.7 3.8 0 2.5 20.7 42 26.4 50.2 3.2 4.8 2.9 4.7 13.9 1.6 1.7-.6 4.9-1.5 7-2 5.7-1.7 10.3-3 14.5-4.2 2-.6 5.3-1.3 7.2-1.6 3.2-.4 3.8-.1 7.2 4.4 2 2.6 7 8.3 11.1 12.6 6.8 7.1 7.4 8.1 6.7 10.5-.5 1.5-3.8 10.9-7.4 20.9s-6.6 18.8-6.6 19.6 5.7 5.2 12.7 9.8c6.9 4.6 13.1 8.8 13.7 9.4.6.5 2.3 1.6 3.8 2.4 1.6.8 2.8 1.8 2.8 2.3 0 .4.5.8 1 .8.6 0 4.7 2.5 9.3 5.5 4.5 3 8.6 5.5 9.2 5.5s8-7 16.5-15.5c11.9-11.9 16.1-15.5 18-15.5 1.4 0 3 .4 3.6.8.5.4 2.7 1.4 4.9 2.1s4.9 1.6 6 2c1.8.8 12.8 4.1 20 6.1 1.7.4 5.8 1.4 9.3 2.1s6.7 1.9 7.3 2.5c.5.6 1.3 3.1 1.8 5.5 1.3 6.4 4.8 21.4 7 29.4l1.9 7 31 .3 31 .2.6-2.2c.4-1.3 2.7-10.2 5.1-19.8 2.5-9.6 5-18.5 5.6-19.6.7-1.4 2.4-2.4 4.8-2.8 4.1-.6 10-2 15.1-3.5 1.9-.5 5.2-1.4 7.3-1.9 2.1-.6 6.1-2.1 9-3.4 5-2.4 13.2-4.8 16.2-4.8.8 0 8.4 7 16.9 15.5 8.4 8.5 16.1 15.5 16.9 15.5s3.6-1.6 6.3-3.5 10.3-7.1 16.9-11.5c12.3-8.1 22.2-15 26.8-18.4l2.5-2-2.4-6.5c-2.5-6.6-11.1-31-12.1-34.4-.6-1.9 2.9-6.9 9.3-13.3 2.3-2.3 5.4-5.9 7-8 4.6-6.2 5.3-6.7 8.2-6.1 8.1 1.7 23.9 6.1 24.8 7 .4.4 1.7.7 2.8.7 1.2 0 4.5.9 7.3 1.9 5.9 2.1 5.5 2.4 10-5.9 1.7-3 4-7.3 5.3-9.5s3.9-6.9 5.8-10.5 4.7-8.8 6.2-11.5c1.5-2.8 4-7.4 5.6-10.4l2.9-5.4-11.5-11c-6.3-6-14.1-13.2-17.3-16-6.3-5.6-6.1-4.7-3.8-14.7 1.9-7.8 3.2-14.4 3.8-18.5.7-5.1 1.8-6.5 5.4-6.5 1.6 0 3.7-.4 4.7-1 .9-.5 7.3-2.4 14.2-4 6.9-1.7 14.6-3.8 17.3-4.6l4.7-1.6V336c0-12.6-.4-23.1-.9-23.4-.4-.3-1.1-4-1.4-8.2s-.7-7.7-.9-7.9c-.2-.3-26.8-5.7-44.5-9.1-1.9-.4-2.3-1.1-2.3-3.9 0-1.8-.4-3.7-1-4-.5-.3-1-1.6-1-2.8s-1.4-6-3-10.7-3-9.4-3-10.6c0-1.4 5.5-7.5 16-18 8.8-8.7 16-16.4 16-17.1 0-1.5-1.3-3.7-11.7-20.8-4.3-7.2-8.6-14.1-9.4-15.5s-1.6-2.7-1.9-3-2.1-3.1-4-6.3c-3.5-5.9-5.7-7-9.8-4.7-1.8.9-8.2 3.1-21.2 7-4.1 1.2-8.4 2.6-9.5 3s-3.9 1.3-6.2 2l-4.2 1.3-12.6-11.9c-10.6-10.1-12.5-12.3-12.1-14.4.2-1.4 3.1-11.3 6.5-22s6.1-20.1 6.1-21c0-1.4-3.3-4-10.4-8-1.9-1-4.4-2.4-5.7-3.2-1.3-.7-2.6-1.5-2.9-1.8-.7-.7-4.5-2.8-12.5-7-3.8-2-9.5-5.1-12.7-6.8-3.1-1.8-6.3-3.2-7.2-3.2-1.6 0-3.9 2-9.5 8.6-1.9 2.1-7.3 8.2-12.1 13.4s-9.8 10.8-11.1 12.3c-2.4 2.8-2.4 2.8-6.9 1.4-2.5-.8-7-2-10-2.7-5.2-1.1-10.3-2.4-16-3.9-2.2-.6-3-2.3-6.6-13.7-4.2-13-7-23.5-8.2-30.9l-.7-4-30.2-.3c-18.7-.1-30.4.1-30.8.7m50.3 14.3c.6.7 3.1 10.1 5.7 20.8s5 20.6 5.4 22c.8 2.6 2.4 3.2 16.6 6.1 5.9 1.2 27.4 7.1 30.7 8.4 1.3.5 3.4-1 8.2-6.2 9.5-10.2 14-15.1 20.4-22.5 6.1-7.2 8.1-8 12.2-4.8 1.4 1.1 2.9 2 3.3 2 .5 0 2.7 1.3 5 2.8 2.3 1.6 4.9 3.2 5.7 3.5 1.3.6 7.7 4.3 13 7.6 1.5.9-.2 7.5-9.1 35.6-1.6 4.9-2.9 9.3-2.9 9.6s3.7 3.7 8.3 7.5c4.5 3.8 12.8 11.5 18.4 17.3l10.1 10.4 8.9-2.8c4.8-1.5 14.8-4.8 22.1-7.1 7.3-2.4 13.4-4.4 13.7-4.4.5 0 5.7 7.5 8.3 12.1 4 7.2 4.7 8.3 6.5 10.3.9 1.1 1.7 2.5 1.7 3 0 .6.9 2.2 2 3.6s2 3.1 2 3.8-7.2 8.4-16 17.2-16 16.4-16 17 .4 1.8.9 2.8c.8 1.6 1.7 3.7 4 9.4 1.3 3.2 2.7 7.6 4.1 12.8.7 2.5 1.6 5.6 2 7 .5 1.4 1.4 5.3 2.1 8.8 1.5 7.3-.8 6.3 26.2 11.3 9.7 1.8 18.2 3.6 18.8 3.9 1.1.8 2.9 19.5 2.9 31.7 0 6.9-.3 8.4-1.7 9.1-1 .5-10.7 3.1-21.5 5.8-13.3 3.2-19.9 5.3-20.3 6.4-.4.8-1 4.4-1.6 8-1.7 12.2-2.8 17.7-6 30.2-2.4 10-2.7 9.1 5.2 16.5 4 3.7 8.2 7.7 9.3 8.8 1.2 1.1 5.1 4.6 8.9 7.9 3.7 3.2 6.7 6.5 6.7 7.3s-1.4 4-3.1 7.1c-1.8 3.2-4.4 7.9-5.9 10.7-9.8 18.2-9.8 18.2-13.7 16.8-1.5-.6-4.8-1.6-7.3-2.3s-5.6-1.6-7-2-4.5-1.3-7-2-6.9-2.1-9.9-3.1-5.8-1.6-6.2-1.3c-.5.3-3 3.3-5.6 6.7-6.4 8.4-9.3 11.6-19.7 22.4-7.8 8.1-8.8 9.5-8.2 11.8.4 1.5 3.6 10.5 7.1 20 3.6 9.5 6.5 17.8 6.5 18.4 0 1.2-32.3 23.1-34.1 23.1-.6 0-2.3-1.2-3.7-2.8-1.5-1.5-8.6-8.2-15.8-15-12.2-11.4-15.4-13.5-16.8-11.3-.3.5-5.4 2.8-11.3 5.1-6 2.3-11.8 4.6-13.1 5.1s-3.3.9-4.5.9c-1.3 0-2.7.4-3.3.8-.5.5-3.4 1.4-6.4 2.1-3 .6-7.3 1.6-9.5 2.1s-6.1 1.2-8.7 1.5-5 1-5.3 1.6c-.6.9-5.2 17.8-8.6 31.9-1.2 4.7-2.6 8.8-3.2 9.2-.7.4-9.9.8-20.5.8-22.4 0-19.8 1.5-23.3-14-1.2-5.2-3.1-13.8-4.3-19l-2.1-9.5-4.5-.8c-12.9-2.3-24.3-4.9-25.4-5.9-.6-.4-1.9-.8-3.1-.8-1.1 0-5.2-1.2-9-2.6-17-6.2-20.5-7.7-20.5-8.6 0-.4-1-.8-2.3-.8-1.6 0-6.9 4.5-17.7 15-8.5 8.2-15.9 15-16.3 15-.5 0-2.8-1.4-5.2-3s-4.6-3-5-3c-.9 0-16-10.3-16.3-11.2-.2-.4-.9-.8-1.5-.8-.7 0-2.5-1.1-4.1-2.3l-2.9-2.3 7.1-19.5c3.8-10.7 7.2-20.1 7.4-21 .2-1-2.7-4.7-7.4-9.3-7-6.9-19.2-21-24.3-28.1l-2.1-2.8-7.4 2.3c-10.1 3-19.7 5.8-24.5 7.1-2.2.6-5 1.5-6.2 1.9-1.5.6-2.5.4-3.3-.5-1.2-1.5-8-12.5-8-13 0-.2-2.5-4.6-5.5-9.9-3-5.2-5.5-10.1-5.5-10.9 0-.7 1.5-2.6 3.3-4.2 5.1-4.5 20.7-18.6 25.6-23.2l4.5-4.1-1.3-4.4c-2.2-7.3-4.5-17.5-6-25.8-.6-3-1.5-8.3-2.2-11.7l-1.1-6.1-9.2-2.5c-5-1.4-14-3.7-20.1-5.2-6-1.5-11.6-3.2-12.3-3.8-2.1-1.7-1.3-38.1.8-40 .8-.8 10.9-3.3 22.4-5.6s21.3-4.4 21.7-4.7c.5-.3.9-1.5.9-2.8s.4-3.6.9-5.2 1.4-4.9 2.1-7.4c2.3-8.3 7.2-22.5 9.3-26.8l2-4.4-6.4-6.5c-3.5-3.6-11-11.2-16.7-16.9l-10.3-10.5 1.9-3.2c1.1-1.8 4.1-6.8 6.7-11.2 2.7-4.4 6.4-10.4 8.3-13.3 3.3-4.9 3.8-5.2 6.6-4.6 1.7.3 3.6.9 4.1 1.3.6.4 3 1.3 5.5 2s5.4 1.7 6.5 2.2c1.1.4 7.3 2.6 13.8 4.8l11.9 3.9 10.9-11.3c6.1-6.2 14.1-13.9 17.9-17.1 3.9-3.2 7-6.5 7-7.4 0-.8-2.8-11.1-6.1-22.9-5.9-20.4-6.1-21.4-4.3-22.5 1-.6 4.3-2.5 7.4-4.2 3-1.7 7.5-4.3 10-5.8 2.5-1.4 6.2-3.4 8.3-4.3 2-1 3.7-2.1 3.7-2.5 0-.5.8-.8 1.9-.8s4.4 2.9 7.7 6.7c5.9 6.9 12.7 14.3 21.9 24l5 5.3 4.5-1.6c4.8-1.7 6.6-2.3 17-4.9 10.3-2.5 14.2-3.4 19.1-4 2.6-.3 5.3-1.1 6.1-1.8s3.8-10.9 6.7-22.7c3.3-13.4 5.9-22 6.9-22.8 1.1-.8 6.7-1.2 19.8-1.2 13.3 0 18.4.3 19.2 1.2"/><path d="M273.5 140.1c-16.5 2.3-21.8 3.3-30.4 5.6-10.9 2.8-17.3 4.9-21.6 6.8-1.6.7-5 2.1-7.5 3.1-8.4 3.3-22.6 11.1-32.4 17.7-11.3 7.6-17.3 12.5-29.5 24.2-31.3 30.1-52.1 70.6-58.6 113.7-2.9 18.9-1.9 50.7 2 70.3 5.9 28.8 20.6 59.2 40.8 84 12.4 15.3 36.8 37 49.7 44.3 1.9 1 5.8 3.2 8.5 4.9 4.9 2.8 11.6 6.2 20.6 10.2 5.4 2.4 23.5 8.4 29.9 9.9 22.1 5.2 26.5 5.7 52.5 5.6 24.2 0 27.1-.3 47.6-4.8 20.9-4.6 46.8-16.1 67.4-29.9 4.9-3.4 10.1-7.1 11.5-8.4s3.7-3.1 5.1-4c4.4-2.6 22.3-21.3 30.2-31.5 13.5-17.4 25.6-39.5 32.1-58.9 10.8-32.1 12.6-70.5 5.1-106.4-9.8-46.7-42.6-94.1-84.7-122.3-12.6-8.5-37.1-21.2-40.8-21.2-.6 0-1.8-.4-2.8-1-4-2.2-23.6-7.6-34.2-9.5-18.4-3.2-46.9-4.3-60.5-2.4m41.6 14c31.8 3.2 63.1 14.5 89.3 32.2 3.4 2.2 6.3 4.3 6.6 4.7.3.3 1.6 1.4 2.9 2.3 11.8 8 30.1 27.4 41.3 43.7 14.9 21.6 22.7 40.4 28.9 69 2 9.1 2.3 13.5 2.3 33.5.1 22.1-.2 25.4-3.5 40.5-5.8 26.1-17.5 50.6-35.4 74-5.6 7.3-19.4 21.4-27.5 28.1-3.6 3-6.7 5.7-7 6-1.6 1.9-20.1 13.5-28.1 17.6-16.8 8.7-30.9 13.7-50.9 18-11.7 2.6-14.1 2.7-37 2.7-22.7 0-25.4-.2-37.2-2.7-46.4-9.8-82.4-31.4-113.3-67.7-9-10.7-21.7-31.8-26.5-44-1.2-3-2.8-6.9-3.5-8.5-1.6-3.6-5-14.6-6-19.5-.4-1.9-1.1-5.3-1.6-7.5-1.8-8.4-3.9-27.4-3.9-36 .1-27.6 6.6-55.2 19.1-80.5 12.8-25.8 29-46.4 49.4-62.7 4.4-3.5 8.9-7.1 9.9-8 8.1-6.7 32-19.5 45.1-24.3 27.7-10.1 57.8-13.9 86.6-10.9"/><path d="M296.6 178.8c-1 .2-3.8 1.9-6.3 3.8-4.7 3.6-12.6 6.4-18 6.4-1.8 0-6.6-.8-10.6-1.9-14.6-3.7-21.2-4.5-27.4-3.2-8.6 1.8-14.1 4.9-21 11.6-5.3 5.3-6.4 7-8.2 13.2-1.4 4.6-2.1 9.8-2.1 15.1 0 11.5.2 11.2-9.4 11.2-5 0-8.9.5-9.9 1.2-1.4 1.1-1.8 4.5-2.7 20.3-.6 10.4-1.5 26-2.1 34.5-.9 14.8-1.8 30.3-3.9 67.5-.6 9.3-1.4 24-1.9 32.5-.6 8.5-1.3 23.2-1.7 32.6-.7 16.3-.6 17.2 1.2 18.1 1.2.7 47.4 1 128 .9 105.3-.1 126.4-.3 127.7-1.5 1.6-1.2 1.7-8.7 1.7-88.5 0-86.4 0-87.2-2-89.4-3.9-4.2-2.5-5-38.7 22.2-13.1 9.9-28.2 21.5-33.6 25.8-5.3 4.4-10.2 7.6-10.7 7.3-.6-.4-1-10.4-1-26.3 0-14.1-.3-26.7-.6-28-.9-3-4.7-3.9-8.2-1.7-1.5 1-6.7 4.8-11.7 8.5-7.2 5.3-33 24.4-47.5 35-11 8.1-23.7 17.7-24.8 18.7-2 1.9-3.1 1.6-3.6-1-.5-2.1-1.9-33.1-3.3-69.4-.3-8.9-1-16.8-1.4-17.5-.5-.8-3.9-1.5-9.5-1.8-4.9-.3-8.9-1-9.1-1.6-.7-2.3 4.3-7.9 8.4-9.3 3.7-1.3 5.3-1.3 16.7.8 15.6 2.9 20.3 2.5 30.1-2.3 14.4-7.1 23.7-20.2 23.7-33.6.1-3.7-.2-7.2-.6-7.9-1.1-1.7-3.9-2.8-6-2.3m-48.1 18.7c4.4.8 10 1.9 12.5 2.4 6.5 1.4 16.8 1.2 21.5-.4 5.9-2.1 6.3-.3 1 4.8-8.5 8.5-19.7 11.9-28.2 8.6-4.3-1.6-20.2-2.3-24.9-1-2.3.6-5.8 2.2-7.8 3.6-4.9 3.3-5.9 3.2-5.1-.8 2.1-10.1 9.7-16.3 22.5-18.6.3 0 4.1.6 8.5 1.4m-19.3 53.4c.4.4 1.2 9.9 1.8 21.1.6 11.3 1.5 28.6 2 38.5.6 9.9 1 21.2 1 25.2 0 9.2 1.3 12.3 5.2 12.3 2.4 0 10.6-4.5 12.8-6.9.3-.3 3-2.4 6-4.7 14.4-10.7 30-22.1 45.5-33.4 9.4-6.8 18.7-13.6 20.7-15.2 2-1.5 4.2-2.8 4.7-2.8.8 0 1.1 8.8 1.1 27.3 0 19.9.3 27.6 1.2 28.5 2.6 2.6 9.1.7 14.4-4.3.6-.5 2.6-2.1 4.4-3.5s5.9-4.5 8.9-7c15.2-12.3 55.4-41.9 56.2-41.4.5.3.9 30.4.9 71.9V428l-2.2.5c-1.3.3-7 .5-12.8.3l-10.5-.3-.3-25.9c-.1-17.1-.6-26.4-1.3-27.3-1.6-1.8-154.8-2-156.7-.1-.9.9-1.2 8-1.2 25.9 0 13.6-.3 25.4-.6 26.3-.5 1.4-3.4 1.6-21.9 1.6-15.8 0-21.5-.3-22.3-1.3-1-1.2-.5-15.7 1.8-54.2.6-9.9 1.5-26.1 2-36 .6-9.9 1.4-25.7 2-35 .5-9.4 1.4-24.8 1.9-34.4.7-12.4 1.3-17.6 2.3-18.3 1.5-.9 31.9.1 33 1.1m147.1 137.8c.4.2.7 9.2.7 19.8 0 19.4 0 19.5-2.2 20-1.3.3-31.1.4-66.3.3l-64-.3-.3-19.9c-.2-15.3.1-20.2 1-20.8 1.3-.9 129.6 0 131.1.9"/></g><path fill="teal" d="M245.2 278.5c0 1.6.2 2.2.5 1.2.2-.9.2-2.3 0-3-.3-.6-.5.1-.5 1.8m99.8 39.9c.7.7 1.3.7 2 0 .6-.6.3-1-1-1s-1.6.4-1 1m-97.9 4.2c0 1.1.3 1.4.6.6.3-.7.2-1.6-.1-1.9-.3-.4-.6.2-.5 1.3m-16.9 61.9c0 1.6.2 2.2.5 1.2.2-.9.2-2.3 0-3-.3-.6-.5.1-.5 1.8m78.1 3.2c1.5.2 3.7.2 5 0 1.2-.2 0-.4-2.8-.4-2.7 0-3.8.2-2.2.4m-78.1 4.3c0 1.9.2 2.7.5 1.7.2-.9.2-2.5 0-3.5-.3-.9-.5-.1-.5 1.8m.1 27.5c0 2.2.2 3 .4 1.7.2-1.2.2-3 0-4-.3-.9-.5.1-.4 2.3m160.6 8.8c.4.4 3.9.7 7.7.5l6.9-.3-7.7-.5c-4.2-.3-7.3-.1-6.9.3m-198.1.4c2.3.2 6.1.2 8.5 0 2.3-.2.4-.4-4.3-.4s-6.6.2-4.2.4m22 0c.7.3 1.6.2 1.9-.1.4-.3-.2-.6-1.3-.5-1.1 0-1.4.3-.6.6m4 0c.6.2 1.8.2 2.5 0 .6-.3.1-.5-1.3-.5s-1.9.2-1.2.5m56 0c1.2.2 3 .2 4 0 .9-.3-.1-.5-2.3-.4-2.2 0-3 .2-1.7.4m11 0c1.2.2 3 .2 4 0 .9-.3-.1-.5-2.3-.4-2.2 0-3 .2-1.7.4m28.5 0c11.5.2 29.9.2 41 0 11.1-.1 1.8-.2-20.8-.2-22.5 0-31.6.1-20.2.2m93.5 0c1.2.2 3.2.2 4.5 0 1.2-.2.2-.4-2.3-.4s-3.5.2-2.2.4m-211.5 14c.9.2 2.3.2 3 0 .6-.3-.1-.5-1.8-.5-1.6 0-2.2.2-1.2.5m42.5 0c.7.3 1.6.2 1.9-.1.4-.3-.2-.6-1.3-.5-1.1 0-1.4.3-.6.6m12.5 0c1.5.2 3.9.2 5.5 0 1.5-.2.2-.4-2.8-.4s-4.3.2-2.7.4m13 0c1.5.2 3.7.2 5 0 1.2-.2 0-.4-2.8-.4-2.7 0-3.8.2-2.2.4m18 0c1.5.2 3.7.2 5 0 1.2-.2 0-.4-2.8-.4-2.7 0-3.8.2-2.2.4m15.9 0c3.7.2 10 .2 14 0 4-.1 1-.3-6.7-.3s-11 .1-7.3.3m67.6 0c.7.3 1.6.2 1.9-.1.4-.3-.2-.6-1.3-.5-1.1 0-1.4.3-.6.6m32 0c.7.3 1.6.2 1.9-.1.4-.3-.2-.6-1.3-.5-1.1 0-1.4.3-.6.6"/><path fill="#2B6CB0" d="M400.9 109.7c-1.3 1.6-1.2 1.7.4.4.9-.7 1.7-1.5 1.7-1.7 0-.8-.8-.3-2.1 1.3M204 124.4c0 .2.8 1 1.8 1.7 1.5 1.3 1.6 1.2.3-.4s-2.1-2.1-2.1-1.3m176.9 7.3c-1.3 1.6-1.2 1.7.4.4.9-.7 1.7-1.5 1.7-1.7 0-.8-.8-.3-2.1 1.3m57.6 64.3c1 1.1 2 2 2.3 2s-.3-.9-1.3-2-2-2-2.3-2 .3.9 1.3 2m-168.7 5.7c1.2.2 3 .2 4 0 .9-.3-.1-.5-2.3-.4-2.2 0-3 .2-1.7.4m162.2 7.8c1.9 1.9 3.6 3.5 3.9 3.5s-1-1.6-2.9-3.5-3.6-3.5-3.9-3.5 1 1.6 2.9 3.5M202.3 229c0 2.5.2 3.5.4 2.2.2-1.2.2-3.2 0-4.5-.2-1.2-.4-.2-.4 2.3m36.5 144.7c.7.3 1.6.2 1.9-.1.4-.3-.2-.6-1.3-.5-1.1 0-1.4.3-.6.6m7 0c1.2.2 3.2.2 4.5 0 1.2-.2.2-.4-2.3-.4s-3.5.2-2.2.4m9 0c.7.3 1.6.2 1.9-.1.4-.3-.2-.6-1.3-.5-1.1 0-1.4.3-.6.6m6 0c1.2.2 3 .2 4 0 .9-.3-.1-.5-2.3-.4-2.2 0-3 .2-1.7.4m9 0c1.2.2 3.2.2 4.5 0 1.2-.2.2-.4-2.3-.4s-3.5.2-2.2.4m14.5 0c2 .2 5.4.2 7.5 0 2-.2.3-.4-3.8-.4s-5.8.2-3.7.4m19.5 0c1.2.2 3.2.2 4.5 0 1.2-.2.2-.4-2.3-.4s-3.5.2-2.2.4m-1 14c.6.2 1.8.2 2.5 0 .6-.3.1-.5-1.3-.5s-1.9.2-1.2.5"/><path fill="#2B6CB0" d="M354.8 109.7c.6.2 1.8.2 2.5 0 .6-.3.1-.5-1.3-.5s-1.9.2-1.2.5M39 220c0 .5.5 1 1 1 .6 0 1-.5 1-1 0-.6-.4-1-1-1-.5 0-1 .4-1 1"/></svg>